<svg width="360" height="640" viewBox="0 0 360 540" fill="none" xmlns="http://www.w3.org/2000/svg">
<g clip-path="url(#clip0)">
<path fill-rule="evenodd" clip-rule="evenodd" d="M-27 405.371L43.3131 330.929L65.0462 356.397L95.1515 302L138.894 357.73L159.153 361.821L187 397.296V405.371H-27Z" fill="url(#paint0_linear)"/>
<path fill-rule="evenodd" clip-rule="evenodd" d="M92 412.837L112.701 373.513L155.005 358.316L201.488 289.601L223.66 319.732L235.535 309.221L284.698 230L325.022 292.567L351.354 305.505L380.512 350.772L411.838 360.912L441.968 385.705L446 413.962L92 412.837Z" fill="url(#paint1_linear)"/>
<path d="M-8 398H367V640H-8V398Z" fill="#6051BF"/>
<path fill-rule="evenodd" clip-rule="evenodd" d="M-27 397.418L43.3131 457.655L65.0462 437.047L95.1515 481.063L138.894 435.968L159.153 432.657L187 403.952V397.418" fill="url(#paint2_linear)"/>
<path fill-rule="evenodd" clip-rule="evenodd" d="M92 397.758L112.701 424.248L155.005 434.485L201.488 480.773L223.66 460.476L235.535 467.556L284.698 520.922L325.022 478.775L351.354 470.06L380.512 439.567L411.838 432.736L441.968 416.034L446 397" fill="url(#paint3_linear)"/>
<path d="M154.316 377.691H157.474V397H154.316V377.691Z" fill="#4F4FBD"/>
<path fill-rule="evenodd" clip-rule="evenodd" d="M155.5 360L163 380.531H148L155.5 360Z" fill="#5454B7"/>
<path fill-rule="evenodd" clip-rule="evenodd" d="M155.5 361.35L163 371.7H148L155.5 361.35Z" fill="#5454B7"/>
<path fill-rule="evenodd" clip-rule="evenodd" d="M155.5 351L163 365.765H148L155.5 351Z" fill="#5454B7"/>
<g opacity="0.45">
<path d="M154.316 412.531H157.474V397H154.316V412.531Z" fill="#4F4FBD"/>
<path fill-rule="evenodd" clip-rule="evenodd" d="M155.5 426.761L163 410.247H148L155.5 426.761Z" fill="#5454B7"/>
<path fill-rule="evenodd" clip-rule="evenodd" d="M155.5 425.675L163 417.35H148L155.5 425.675Z" fill="#5454B7"/>
<path fill-rule="evenodd" clip-rule="evenodd" d="M155.5 434L163 422.123H148L155.5 434Z" fill="#5454B7"/>
</g>
<g filter="url(#filter0_d)">
<path fill-rule="evenodd" clip-rule="evenodd" d="M130.378 206.75L128.908 207.523L129.189 205.886L128 204.727L129.643 204.489L130.378 203L131.112 204.489L132.755 204.727L131.566 205.886L131.847 207.523L130.378 206.75Z" fill="white"/>
</g>
<g filter="url(#filter1_d)">
<path fill-rule="evenodd" clip-rule="evenodd" d="M321 147.886L317.91 149.511L318.5 146.07L316 143.633L319.455 143.131L321 140L322.545 143.131L326 143.633L323.5 146.07L324.09 149.511L321 147.886Z" fill="white"/>
</g>
<g filter="url(#filter2_d)">
<path fill-rule="evenodd" clip-rule="evenodd" d="M51.3776 326.75L49.9082 327.523L50.1888 325.886L49 324.727L50.6429 324.489L51.3776 323L52.1124 324.489L53.7553 324.727L52.5665 325.886L52.8471 327.523L51.3776 326.75Z" fill="white"/>
</g>
<g filter="url(#filter3_d)">
<path fill-rule="evenodd" clip-rule="evenodd" d="M273.378 261.75L271.908 262.523L272.189 260.886L271 259.727L272.643 259.489L273.378 258L274.112 259.489L275.755 259.727L274.566 260.886L274.847 262.523L273.378 261.75Z" fill="white"/>
</g>
<g clip-path="url(#clip1)">
<g opacity="0.163666" filter="url(#filter4_d)">
<path fill-rule="evenodd" clip-rule="evenodd" d="M227.622 463.25L229.092 462.477L228.811 464.114L230 465.273L228.357 465.511L227.622 467L226.888 465.511L225.245 465.273L226.434 464.114L226.153 462.477L227.622 463.25Z" fill="white"/>
</g>
<g opacity="0.163666" filter="url(#filter5_d)">
<path fill-rule="evenodd" clip-rule="evenodd" d="M37 522.114L40.0902 520.489L39.5 523.93L42 526.367L38.5451 526.869L37 530L35.4549 526.869L32 526.367L34.5 523.93L33.9098 520.489L37 522.114Z" fill="white"/>
</g>
<g opacity="0.163666" filter="url(#filter6_d)">
<path fill-rule="evenodd" clip-rule="evenodd" d="M306.622 343.25L308.092 342.477L307.811 344.114L309 345.273L307.357 345.511L306.622 347L305.888 345.511L304.245 345.273L305.434 344.114L305.153 342.477L306.622 343.25Z" fill="white"/>
</g>
<g opacity="0.163666" filter="url(#filter7_d)">
<path fill-rule="evenodd" clip-rule="evenodd" d="M84.6224 408.25L86.0918 407.477L85.8112 409.114L87 410.273L85.3571 410.511L84.6224 412L83.8876 410.511L82.2447 410.273L83.4335 409.114L83.1529 407.477L84.6224 408.25Z" fill="white"/>
</g>
</g>
</g>
<defs>
<filter id="filter0_d" x="118" y="193" width="24.7553" height="24.5225" filterUnits="userSpaceOnUse" color-interpolation-filters="sRGB">
<feFlood flood-opacity="0" result="BackgroundImageFix"/>
<feColorMatrix in="SourceAlpha" type="matrix" values="0 0 0 0 0 0 0 0 0 0 0 0 0 0 0 0 0 0 127 0"/>
<feOffset/>
<feGaussianBlur stdDeviation="5"/>
<feColorMatrix type="matrix" values="0 0 0 0 1 0 0 0 0 1 0 0 0 0 1 0 0 0 0.5 0"/>
<feBlend mode="normal" in2="BackgroundImageFix" result="effect1_dropShadow"/>
<feBlend mode="normal" in="SourceGraphic" in2="effect1_dropShadow" result="shape"/>
</filter>
<filter id="filter1_d" x="306" y="130" width="30" height="29.5106" filterUnits="userSpaceOnUse" color-interpolation-filters="sRGB">
<feFlood flood-opacity="0" result="BackgroundImageFix"/>
<feColorMatrix in="SourceAlpha" type="matrix" values="0 0 0 0 0 0 0 0 0 0 0 0 0 0 0 0 0 0 127 0"/>
<feOffset/>
<feGaussianBlur stdDeviation="5"/>
<feColorMatrix type="matrix" values="0 0 0 0 1 0 0 0 0 1 0 0 0 0 1 0 0 0 0.5 0"/>
<feBlend mode="normal" in2="BackgroundImageFix" result="effect1_dropShadow"/>
<feBlend mode="normal" in="SourceGraphic" in2="effect1_dropShadow" result="shape"/>
</filter>
<filter id="filter2_d" x="36" y="310" width="30.7553" height="30.5225" filterUnits="userSpaceOnUse" color-interpolation-filters="sRGB">
<feFlood flood-opacity="0" result="BackgroundImageFix"/>
<feColorMatrix in="SourceAlpha" type="matrix" values="0 0 0 0 0 0 0 0 0 0 0 0 0 0 0 0 0 0 127 0"/>
<feOffset/>
<feGaussianBlur stdDeviation="6.5"/>
<feColorMatrix type="matrix" values="0 0 0 0 1 0 0 0 0 1 0 0 0 0 1 0 0 0 0.5 0"/>
<feBlend mode="normal" in2="BackgroundImageFix" result="effect1_dropShadow"/>
<feBlend mode="normal" in="SourceGraphic" in2="effect1_dropShadow" result="shape"/>
</filter>
<filter id="filter3_d" x="258" y="245" width="30.7553" height="30.5225" filterUnits="userSpaceOnUse" color-interpolation-filters="sRGB">
<feFlood flood-opacity="0" result="BackgroundImageFix"/>
<feColorMatrix in="SourceAlpha" type="matrix" values="0 0 0 0 0 0 0 0 0 0 0 0 0 0 0 0 0 0 127 0"/>
<feOffset/>
<feGaussianBlur stdDeviation="6.5"/>
<feColorMatrix type="matrix" values="0 0 0 0 1 0 0 0 0 1 0 0 0 0 1 0 0 0 0.5 0"/>
<feBlend mode="normal" in2="BackgroundImageFix" result="effect1_dropShadow"/>
<feBlend mode="normal" in="SourceGraphic" in2="effect1_dropShadow" result="shape"/>
</filter>
<filter id="filter4_d" x="212.245" y="449.477" width="30.7553" height="30.5225" filterUnits="userSpaceOnUse" color-interpolation-filters="sRGB">
<feFlood flood-opacity="0" result="BackgroundImageFix"/>
<feColorMatrix in="SourceAlpha" type="matrix" values="0 0 0 0 0 0 0 0 0 0 0 0 0 0 0 0 0 0 127 0"/>
<feOffset/>
<feGaussianBlur stdDeviation="6.5"/>
<feColorMatrix type="matrix" values="0 0 0 0 1 0 0 0 0 1 0 0 0 0 1 0 0 0 0.5 0"/>
<feBlend mode="normal" in2="BackgroundImageFix" result="effect1_dropShadow"/>
<feBlend mode="normal" in="SourceGraphic" in2="effect1_dropShadow" result="shape"/>
</filter>
<filter id="filter5_d" x="19" y="507.489" width="36" height="35.5106" filterUnits="userSpaceOnUse" color-interpolation-filters="sRGB">
<feFlood flood-opacity="0" result="BackgroundImageFix"/>
<feColorMatrix in="SourceAlpha" type="matrix" values="0 0 0 0 0 0 0 0 0 0 0 0 0 0 0 0 0 0 127 0"/>
<feOffset/>
<feGaussianBlur stdDeviation="6.5"/>
<feColorMatrix type="matrix" values="0 0 0 0 1 0 0 0 0 1 0 0 0 0 1 0 0 0 0.5 0"/>
<feBlend mode="normal" in2="BackgroundImageFix" result="effect1_dropShadow"/>
<feBlend mode="normal" in="SourceGraphic" in2="effect1_dropShadow" result="shape"/>
</filter>
<filter id="filter6_d" x="291.245" y="329.477" width="30.7553" height="30.5225" filterUnits="userSpaceOnUse" color-interpolation-filters="sRGB">
<feFlood flood-opacity="0" result="BackgroundImageFix"/>
<feColorMatrix in="SourceAlpha" type="matrix" values="0 0 0 0 0 0 0 0 0 0 0 0 0 0 0 0 0 0 127 0"/>
<feOffset/>
<feGaussianBlur stdDeviation="6.5"/>
<feColorMatrix type="matrix" values="0 0 0 0 1 0 0 0 0 1 0 0 0 0 1 0 0 0 0.5 0"/>
<feBlend mode="normal" in2="BackgroundImageFix" result="effect1_dropShadow"/>
<feBlend mode="normal" in="SourceGraphic" in2="effect1_dropShadow" result="shape"/>
</filter>
<filter id="filter7_d" x="69.2447" y="394.477" width="30.7553" height="30.5225" filterUnits="userSpaceOnUse" color-interpolation-filters="sRGB">
<feFlood flood-opacity="0" result="BackgroundImageFix"/>
<feColorMatrix in="SourceAlpha" type="matrix" values="0 0 0 0 0 0 0 0 0 0 0 0 0 0 0 0 0 0 127 0"/>
<feOffset/>
<feGaussianBlur stdDeviation="6.5"/>
<feColorMatrix type="matrix" values="0 0 0 0 1 0 0 0 0 1 0 0 0 0 1 0 0 0 0.5 0"/>
<feBlend mode="normal" in2="BackgroundImageFix" result="effect1_dropShadow"/>
<feBlend mode="normal" in="SourceGraphic" in2="effect1_dropShadow" result="shape"/>
</filter>
<linearGradient id="paint0_linear" x1="-12.3216" y1="311.973" x2="-12.3216" y2="401.163" gradientUnits="userSpaceOnUse">
<stop stop-color="#8079D9"/>
<stop offset="1" stop-color="#5457B9"/>
</linearGradient>
<linearGradient id="paint1_linear" x1="116.281" y1="247.748" x2="116.281" y2="406.474" gradientUnits="userSpaceOnUse">
<stop stop-color="#8079D9"/>
<stop offset="1" stop-color="#5457B9"/>
</linearGradient>
<linearGradient id="paint2_linear" x1="170.304" y1="468.012" x2="170.304" y2="397.418" gradientUnits="userSpaceOnUse">
<stop stop-color="#8079D9" stop-opacity="0.01"/>
<stop offset="1" stop-color="#5457B9"/>
</linearGradient>
<linearGradient id="paint3_linear" x1="418.382" y1="501.586" x2="418.382" y2="397" gradientUnits="userSpaceOnUse">
<stop stop-color="#8079D9" stop-opacity="0.01"/>
<stop offset="1" stop-color="#5457B9"/>
</linearGradient>
<clipPath id="clip0">
<rect width="360" height="640" fill="white"/>
</clipPath>
<clipPath id="clip1">
<rect x="309" y="530" width="277" height="188" transform="rotate(-180 309 530)" fill="white"/>
</clipPath>
</defs>
</svg>
